<svg xmlns="http://www.w3.org/2000/svg" xmlns:xlink="http://www.w3.org/1999/xlink" width="400" zoomAndPan="magnify" viewBox="0 0 300 299.999988" height="400" preserveAspectRatio="xMidYMid meet" version="1.0"><defs><clipPath id="be054e4be1"><path d="M 65 64.691406 L 234 64.691406 L 234 234.941406 L 65 234.941406 Z M 65 64.691406 " clip-rule="nonzero"/></clipPath><clipPath id="728b487aa4"><path d="M 172.46875 65.179688 L 226.289062 65.179688 L 226.289062 119 L 172.46875 119 Z M 172.46875 65.179688 " clip-rule="nonzero"/></clipPath><clipPath id="ce6b93a643"><path d="M 199.378906 65.179688 C 184.515625 65.179688 172.46875 77.230469 172.46875 92.089844 C 172.46875 106.953125 184.515625 119 199.378906 119 C 214.242188 119 226.289062 106.953125 226.289062 92.089844 C 226.289062 77.230469 214.242188 65.179688 199.378906 65.179688 Z M 199.378906 65.179688 " clip-rule="nonzero"/></clipPath><clipPath id="293a255ab6"><path d="M 0.46875 0.179688 L 54.289062 0.179688 L 54.289062 54 L 0.46875 54 Z M 0.46875 0.179688 " clip-rule="nonzero"/></clipPath><clipPath id="000a450341"><path d="M 27.378906 0.179688 C 12.515625 0.179688 0.46875 12.230469 0.46875 27.089844 C 0.46875 41.953125 12.515625 54 27.378906 54 C 42.242188 54 54.289062 41.953125 54.289062 27.089844 C 54.289062 12.230469 42.242188 0.179688 27.378906 0.179688 Z M 27.378906 0.179688 " clip-rule="nonzero"/></clipPath><clipPath id="1a9d5cece8"><rect x="0" width="55" y="0" height="54"/></clipPath></defs><g clip-path="url(#be054e4be1)"><path fill="#FFFFFF" d="M 149.390625 64.949219 C 102.933594 64.949219 65.207031 103.191406 65.207031 150.246094 C 65.207031 197.300781 103.019531 235.542969 149.390625 235.542969 C 195.761719 235.542969 233.574219 197.300781 233.574219 150.246094 C 233.574219 103.191406 195.84375 64.949219 149.390625 64.949219 Z M 149.390625 218.515625 C 112.429688 218.515625 82.316406 187.890625 82.316406 150.332031 C 82.316406 112.773438 112.429688 82.144531 149.390625 82.144531 C 186.347656 82.144531 216.464844 112.773438 216.464844 150.332031 C 216.464844 187.890625 186.347656 218.515625 149.390625 218.515625 Z M 149.390625 218.515625 " fill-opacity="1" fill-rule="nonzero"/></g><g clip-path="url(#728b487aa4)"><g clip-path="url(#ce6b93a643)"><g transform="matrix(1, 0, 0, 1, 172, 65)"><g clip-path="url(#1a9d5cece8)"><g clip-path="url(#293a255ab6)"><g clip-path="url(#000a450341)"><path fill="#fd4f1f" d="M 0.46875 0.179688 L 54.289062 0.179688 L 54.289062 54 L 0.46875 54 Z M 0.46875 0.179688 " fill-opacity="1" fill-rule="nonzero"/></g></g></g></g></g></g></svg>